<svg width="24" height="24" viewBox="0 0 24 24" fill="none" xmlns="http://www.w3.org/2000/svg">
<g id="Champ Logo">
<path id="Subtract" d="M13.0957 -0.000976562C19.0242 -0.000967214 20.2539 0.785268 20.2539 5.7002C20.2539 10.2299 19.7112 10.542 18.7979 11.416C18.6664 11.5418 18.6777 11.7519 18.8193 11.8662V11.8672C19.2864 12.2441 19.8347 12.6864 20.2051 13.1738C20.9921 14.0099 21.8041 16.1374 21.3125 17.3281C20.9058 18.1388 20.0578 18.2655 19.5166 17.7588C19.4186 17.6554 19.3056 17.531 19.2451 17.0752C19.211 16.8176 19.3935 16.644 19.1475 15.9854C19.0732 15.7822 18.4335 14.9729 18.3105 15.0488C18.2186 15.1083 18.1952 16.0345 18.1895 16.749L18.1875 17.3535C18.2121 18.1389 18.3055 18.5754 18.5811 19.9131C18.9008 21.3316 18.9803 21.8722 19 22.4971C18.9605 23.3482 18.3849 24 17.7695 24H15.0879C14.3438 23.9998 14.0124 23.265 13.7598 22.2939C13.7007 22.0169 13.6159 21.5488 13.5635 21.3057C13.201 19.9125 13.071 19.8877 12.4561 19.8877H12.0059C11.3909 19.8877 11.2609 19.9126 10.8984 21.3057C10.846 21.5488 10.7612 22.0169 10.7021 22.2939C10.4495 23.2651 10.1174 24 9.37305 24H6.69238C6.07755 24 5.50138 23.3482 5.46191 22.4971C5.4816 21.8722 5.56017 21.3315 5.87988 19.9131L5.90137 19.8086C6.12799 18.7087 6.22506 18.2395 6.26172 17.627L6.27344 17.3535C6.27344 16.7486 6.2734 15.1248 6.15039 15.0488C6.02714 14.9735 5.38882 15.7821 5.31445 15.9854C5.06845 16.6441 5.24998 16.8175 5.21582 17.0752C5.15541 17.5308 5.04326 17.6554 4.94531 17.7588C4.40408 18.2655 3.55614 18.1388 3.14941 17.3281C2.65775 16.1373 3.46975 14.0098 4.25684 13.1738C4.62727 12.6864 5.17544 12.2442 5.64258 11.8672V11.8662C5.78409 11.752 5.79538 11.5418 5.66406 11.416C4.75072 10.542 4.20706 10.23 4.20703 5.7002C4.20703 0.785238 5.4376 -0.000976562 11.3662 -0.000976562H13.0957ZM12.1777 1.77637C10.8291 1.76275 9.48851 1.85263 8.14941 2.00586C6.16379 2.28858 6.20007 4.27823 6.17578 5.9043C6.14759 7.39947 5.97223 9.70776 7.6709 10.2822C8.39905 10.5254 9.6291 10.5859 12.3252 10.5859C16.0644 10.5927 16.3631 10.5252 17.124 10.0996C17.8914 9.66721 18.1543 8.68091 18.1543 6.16797C18.1609 3.66151 17.8719 2.66106 17.0322 2.24219C15.2282 1.69635 13.1539 1.77636 12.1777 1.77637Z" fill="#C75400"/>
<g id="Group 99">
<path id="Vector" d="M10.1434 7.51452C11.1603 8.23249 12.4715 8.40375 13.6739 7.96902C13.9937 7.85045 14.16 7.75824 14.7612 7.36961C14.8827 7.29057 14.9578 7.29851 15.081 7.3762C15.2936 7.57022 15.3496 7.82411 15.1449 8.01513C14.8763 8.2786 14.2367 8.62771 13.7186 8.80555C13.2773 8.95705 13.0982 8.97681 12.3755 8.9834C11.4609 8.9834 10.9556 8.87142 10.2201 8.48938C9.49099 8.11393 9.24155 7.73848 9.51017 7.42889C9.65728 7.25763 9.81717 7.27739 10.1434 7.51452Z" fill="#C75400"/>
<ellipse id="Ellipse 3" cx="9.29516" cy="5.14388" rx="1.29516" ry="1.29622" fill="#C75400"/>
<ellipse id="Ellipse 4" cx="15.3874" cy="5.14388" rx="1.29516" ry="1.29622" fill="#C75400"/>
</g>
</g>
</svg>
