<svg style="enable-background:new 0 0 64 64;" version="1.1" viewBox="0 0 64 64" xml:space="preserve" xmlns="http://www.w3.org/2000/svg" xmlns:xlink="http://www.w3.org/1999/xlink"><g id="basketball"></g><g id="field"></g><g id="basket"></g><g id="trophy"></g><g id="league_1_"></g><g id="player"></g><g id="uniform_1_"></g><g id="scoreboard"></g><g id="medal"></g><g id="shoe_1_"></g><g id="ticket_1_"></g><g id="event_1_"></g><g id="time"></g><g id="strategy_1_"></g><g id="supporter"></g><g id="whistle"></g><g id="podium"><g><path d="M60,23H42V12c0-0.6-0.4-1-1-1H23c-0.6,0-1,0.4-1,1v11H4c-0.6,0-1,0.4-1,1v28c0,0.6,0.4,1,1,1h19h18h19c0.6,0,1-0.4,1-1V24    C61,23.4,60.6,23,60,23z M5,25h17v26H5V25z M24,24V13h16v11v27H24V24z M59,51H42V25h17V51z"></path><path d="M35,44h-2V19c0-0.4-0.2-0.8-0.6-0.9c-0.4-0.2-0.8-0.1-1.1,0.2l-3,3c-0.4,0.4-0.4,1,0,1.4s1,0.4,1.4,0l1.3-1.3V44h-2    c-0.6,0-1,0.4-1,1s0.4,1,1,1h6c0.6,0,1-0.4,1-1S35.6,44,35,44z"></path><path d="M18,28H9c-0.6,0-1,0.4-1,1s0.4,1,1,1h8v7H9c-0.6,0-1,0.4-1,1v9c0,0.6,0.4,1,1,1h9c0.6,0,1-0.4,1-1s-0.4-1-1-1h-8v-7h8    c0.6,0,1-0.4,1-1v-9C19,28.4,18.6,28,18,28z"></path><path d="M46,46c-0.6,0-1,0.4-1,1s0.4,1,1,1h9c0.6,0,1-0.4,1-1v-9v-9c0-0.6-0.4-1-1-1h-9c-0.6,0-1,0.4-1,1s0.4,1,1,1h8v7h-8    c-0.6,0-1,0.4-1,1s0.4,1,1,1h8v7H46z"></path></g></g><g id="bag"></g><g id="bottle"></g><g id="badge"></g></svg>